PathFileType	4	(X/Y/Z)	C:/Users/opensim2020/Desktop/walking_exp_matlab/subject06_walking16_straight_01.trc	
DataRate	CameraRate	NumFrames	NumMarkers	Units	OrigDataRate	OrigDataStartFrame	OrigNumFrames	
100.00	100.00	4	51	mm	100.00	995	333	
Frame#	Time	LFHD			RFHD			LBHD			RBHD			C7			T10			CLAV			STRN			RBAK			LSHO			LUPA			LELB			LFRM			LWRA			LWRB			LFIN			RSHO			RUPA			RELB			RFRM			RWRA			RWRB			RFIN			LASI			RASI			LPSI			RPSI			LTHI			LKNE			LTIB			LANK			LHEE			LTOE			RTHI			RKNE			RTIB			RANK			RHEE			RTOE			*39			*40			*41			*42			*43			*44			*45			*46			*47			*48			*49			*50			
		X1	Y1	Z1	X2	Y2	Z2	X3	Y3	Z3	X4	Y4	Z4	X5	Y5	Z5	X6	Y6	Z6	X7	Y7	Z7	X8	Y8	Z8	X9	Y9	Z9	X10	Y10	Z10	X11	Y11	Z11	X12	Y12	Z12	X13	Y13	Z13	X14	Y14	Z14	X15	Y15	Z15	X16	Y16	Z16	X17	Y17	Z17	X18	Y18	Z18	X19	Y19	Z19	X20	Y20	Z20	X21	Y21	Z21	X22	Y22	Z22	X23	Y23	Z23	X24	Y24	Z24	X25	Y25	Z25	X26	Y26	Z26	X27	Y27	Z27	X28	Y28	Z28	X29	Y29	Z29	X30	Y30	Z30	X31	Y31	Z31	X32	Y32	Z32	X33	Y33	Z33	X34	Y34	Z34	X35	Y35	Z35	X36	Y36	Z36	X37	Y37	Z37	X38	Y38	Z38	X39	Y39	Z39	X40	Y40	Z40	X41	Y41	Z41	X42	Y42	Z42	X43	Y43	Z43	X44	Y44	Z44	X45	Y45	Z45	X46	Y46	Z46	X47	Y47	Z47	X48	Y48	Z48	X49	Y49	Z49	X50	Y50	Z50	X51	Y51	Z51	

125	1.240	-1108.26733	-311.16925	1650.88635	-977.32764	-323.20062	1638.62109	-1121.92078	-443.41241	1598.14905	-993.35144	-454.23224	1590.60999	-1064.60315	-451.75031	1441.40222	-1047.93347	-501.40237	1114.72949	-1055.45325	-345.05225	1360.10034	-1059.01624	-312.60947	1182.80029	-985.53241	-535.09418	1275.44861	-1219.30298	-385.57452	1391.77771	-1287.38403	-349.75253	1192.45056	-1296.89880	-320.70480	1082.01343	-1296.42749	-229.36552	960.99475	-1232.46057	-128.89534	897.71973	-1271.34326	-172.83063	857.48743	-1257.30640	-96.00713	811.51135	-897.26660	-395.60477	1396.36511	-812.12701	-450.11725	1200.35498	-799.75812	-450.20953	1078.35535	-780.29498	-449.47256	958.11414	-804.89313	-406.73456	811.88190	-767.96259	-462.79898	820.80267	-763.34833	-435.10165	740.65997	-1153.50122	-331.29968	943.92181	-932.35449	-325.33472	958.72156	-1121.04944	-487.36398	980.20087	-952.43427	-477.08075	983.36035	-1193.53101	-452.18787	639.94446	-1168.63123	-491.29584	480.17136	-1149.99402	-593.66602	242.16994	-1095.58179	-637.94330	77.54794	-1046.16284	-676.76855	70.67504	-1108.65051	-500.15591	32.59711	-865.58264	-319.67383	633.71722	-897.07733	-280.46396	518.32452	-883.01624	-236.24820	259.17441	-920.13696	-181.55602	79.42322	-964.90991	-210.12096	43.51668	-925.12958	-25.14220	83.64447	-1058.49304	-415.94159	1689.39441																																	 
126	1.250	-1106.46619	-304.76871	1650.65454	-975.59729	-316.64410	1638.21094	-1120.06030	-437.03870	1597.88293	-991.46503	-447.61496	1590.13440	-1062.90625	-445.18518	1440.97754	-1046.31934	-494.26575	1114.21594	-1054.05847	-338.29913	1359.78479	-1058.02295	-305.55530	1182.54822	-983.88391	-527.91522	1274.68408	-1217.79224	-379.19592	1391.55505	-1285.78064	-343.51343	1192.23230	-1295.23083	-314.21954	1081.62244	-1294.95984	-223.71112	960.09241	-1231.09241	-124.15371	895.68414	-1270.38489	-168.00810	856.15015	-1256.46899	-91.45587	809.64026	-895.70483	-388.62671	1395.75586	-810.73517	-442.58679	1199.58423	-798.46252	-442.77972	1077.58459	-779.11237	-441.97360	957.33221	-803.85675	-399.27103	811.11255	-766.96008	-454.96783	820.19440	-762.17737	-427.59299	739.85400	-1153.01172	-324.51743	943.74390	-931.76263	-317.55444	958.05176	-1119.53845	-480.36899	979.81586	-951.04944	-469.13989	982.75952	-1193.01038	-446.21976	640.00983	-1168.27808	-485.61942	480.27103	-1149.88367	-590.90479	243.35539	-1095.71558	-637.20703	79.21326	-1046.34802	-676.05554	72.84439	-1108.67004	-500.03305	32.63988	-864.98047	-313.35867	632.37018	-896.62390	-275.14301	516.62219	-882.83661	-232.84030	257.22000	-919.89978	-179.23082	77.14284	-964.65924	-208.06366	41.26282	-925.13055	-23.02736	81.15871	-1056.49292	-409.49667	1689.07019																																	 
127	1.260	-1104.68201	-298.47775	1650.27087	-973.68304	-310.05829	1637.80737	-1118.05969	-430.56238	1597.62036	-989.46515	-440.92557	1589.68677	-1061.09290	-438.52744	1440.52881	-1044.56152	-487.01184	1113.80725	-1052.59119	-331.42883	1359.52881	-1056.84900	-298.33252	1182.37170	-982.12000	-520.80591	1273.94995	-1216.04919	-372.83524	1391.25940	-1284.19275	-336.85464	1192.05310	-1293.58630	-307.92938	1081.53333	-1293.84619	-218.02058	959.20734	-1229.80212	-119.21819	893.72943	-1269.59924	-163.11604	854.91925	-1255.74133	-87.01301	807.72174	-894.03461	-381.63138	1395.21069	-809.21552	-435.37210	1198.88867	-797.11536	-435.25284	1076.86462	-777.86145	-434.36554	956.59521	-802.68903	-391.61237	810.38788	-766.07623	-447.25879	819.04132	-761.13483	-419.82147	739.13654	-1152.47644	-317.58893	943.64502	-931.28278	-309.41345	957.38739	-1117.96252	-473.19543	979.34503	-949.54926	-460.99976	982.25568	-1192.52051	-440.10254	640.07465	-1167.92615	-479.81354	480.39960	-1149.86646	-587.95050	244.70958	-1095.95532	-636.35193	81.02101	-1046.56360	-675.39551	75.09853	-1108.73169	-500.01117	32.55861	-864.39465	-306.93735	631.11584	-896.09167	-269.77661	515.02673	-882.42474	-229.78856	255.15086	-919.72412	-177.73143	74.69118	-964.36658	-206.97580	38.89222	-925.10742	-21.63607	78.12114	-1054.32434	-402.99191	1688.63708																																	 
128	1.270	-1102.74658	-291.89160	1650.22241	-971.86108	-303.24573	1637.42517	-1115.98145	-424.11963	1597.45508	-987.39868	-434.18555	1589.24451	-1059.21057	-431.76199	1440.09753	-1042.66333	-479.46448	1113.16846	-1050.99329	-324.54437	1359.33997	-1055.68347	-291.01602	1182.28210	-980.24762	-513.69385	1273.16797	-1214.51440	-366.36407	1391.18103	-1282.55139	-330.34113	1191.89136	-1291.84583	-301.44370	1081.35815	-1292.51294	-212.44188	958.46619	-1228.61621	-114.42537	891.64160	-1268.76685	-158.51259	853.41772	-1255.30432	-82.62031	805.83038	-892.27289	-374.50452	1394.69373	-807.79376	-428.09592	1198.26782	-795.68256	-427.58835	1076.18713	-776.60699	-426.58368	955.90533	-801.51306	-383.73135	809.72290	-764.63470	-439.81033	818.49774	-759.95306	-411.92099	738.47968	-1151.78491	-310.41336	943.56500	-930.57587	-301.00861	956.87885	-1116.27637	-465.80484	979.08600	-948.03113	-452.67630	981.81104	-1192.00928	-433.77075	640.16321	-1167.61536	-473.82483	480.49878	-1149.97473	-584.88037	246.09955	-1096.30042	-635.51398	82.88420	-1046.98755	-674.67670	77.53051	-1108.83972	-499.97910	32.48968	-863.84131	-300.21979	629.93439	-895.47467	-264.42340	513.40900	-882.05597	-227.28050	253.00722	-919.59387	-177.11946	71.98919	-964.11523	-206.89857	36.56124	-925.07080	-21.16547	74.37592	-1052.10266	-396.44522	1688.39124																																	 
